<?xml version="1.0" encoding="UTF-8"?>
<!DOCTYPE svg PUBLIC "-//W3C//DTD SVG 1.1//EN" "http://www.w3.org/Graphics/SVG/1.1/DTD/svg11.dtd">
<svg xmlns="http://www.w3.org/2000/svg" version="1.1" width="60px" height="60px" style="shape-rendering:geometricPrecision; text-rendering:geometricPrecision; image-rendering:optimizeQuality; fill-rule:evenodd; clip-rule:evenodd" xmlns:xlink="http://www.w3.org/1999/xlink">
<g><path style="opacity:0.014" fill="#fefffe" d="M 9.5,-0.5 C 10.5,-0.5 11.5,-0.5 12.5,-0.5C 12.5,-0.166667 12.5,0.166667 12.5,0.5C 11.209,0.737305 10.209,0.403972 9.5,-0.5 Z"/></g>
<g><path style="opacity:0.012" fill="#fefffe" d="M 46.5,0.5 C 46.5,0.166667 46.5,-0.166667 46.5,-0.5C 47.5,-0.5 48.5,-0.5 49.5,-0.5C 48.791,0.403972 47.791,0.737305 46.5,0.5 Z"/></g>
<g><path style="opacity:0.871" fill="#fefaf9" d="M 12.5,0.5 C 23.8333,0.5 35.1667,0.5 46.5,0.5C 51.9805,1.97432 55.9805,5.30766 58.5,10.5C 58.2627,11.791 58.596,12.791 59.5,13.5C 59.5,23.8333 59.5,34.1667 59.5,44.5C 59.1667,44.5 58.8333,44.5 58.5,44.5C 58.5,45.8333 58.5,47.1667 58.5,48.5C 57.6618,48.8417 57.3284,49.5084 57.5,50.5C 56.6618,50.8417 56.3284,51.5084 56.5,52.5C 55.8333,52.5 55.5,52.8333 55.5,53.5C 54.8333,53.5 54.5,53.8333 54.5,54.5C 53.8333,54.5 53.5,54.8333 53.5,55.5C 52.5084,55.3284 51.8417,55.6618 51.5,56.5C 49.5183,56.9954 47.5183,57.4954 45.5,58C 34.8385,58.4998 24.1719,58.6665 13.5,58.5C 6.27635,56.9437 1.60968,52.6104 -0.5,45.5C -0.5,34.8333 -0.5,24.1667 -0.5,13.5C 1.53494,6.79833 5.86827,2.465 12.5,0.5 Z M 20.5,16.5 C 18.2646,16.2053 16.2646,16.5386 14.5,17.5C 13.9569,17.44 13.6236,17.1067 13.5,16.5C 15.9732,15.2031 18.3066,15.2031 20.5,16.5 Z M 44.5,17.5 C 42.8333,16.1667 41.1667,16.1667 39.5,17.5C 39.1667,17.5 38.8333,17.5 38.5,17.5C 39.1522,16.2749 40.3189,15.6083 42,15.5C 43.1667,15.8333 44.3333,16.1667 45.5,16.5C 45.3764,17.1067 45.0431,17.44 44.5,17.5 Z M 20.5,19.5 C 20.8333,22.1667 21.1667,22.1667 21.5,19.5C 22.9313,20.7804 23.5979,22.4471 23.5,24.5C 22.9033,24.7352 22.5699,25.2352 22.5,26C 23.2534,31.133 25.5867,35.2997 29.5,38.5C 33.3204,35.8613 35.3204,32.1947 35.5,27.5C 36.3382,27.1583 36.6716,26.4916 36.5,25.5C 37.404,24.791 37.7373,23.791 37.5,22.5C 38.9313,21.2196 39.5979,19.5529 39.5,17.5C 40.5,17.5 41.5,17.5 42.5,17.5C 42.5,18.5 42.5,19.5 42.5,20.5C 39.4625,26.5939 36.7958,32.9273 34.5,39.5C 33.5987,40.2905 32.9321,41.2905 32.5,42.5C 30.5,42.5 28.5,42.5 26.5,42.5C 26.5,41.8333 26.1667,41.5 25.5,41.5C 25.5,40.8333 25.1667,40.5 24.5,40.5C 22.4033,33.5303 19.7366,26.8636 16.5,20.5C 16.5,19.5 16.5,18.5 16.5,17.5C 18.1993,17.5271 19.5326,18.1938 20.5,19.5 Z M 36.5,22.5 C 36.5,23.5 36.5,24.5 36.5,25.5C 35.6618,25.8417 35.3284,26.5084 35.5,27.5C 35.1667,27.5 34.8333,27.5 34.5,27.5C 34.5,26.5 34.5,25.5 34.5,24.5C 35.1667,23.8333 35.8333,23.1667 36.5,22.5 Z M 23.5,40.5 C 23.8333,40.5 24.1667,40.5 24.5,40.5C 25.1667,40.5 25.5,40.8333 25.5,41.5C 26.1667,41.5 26.5,41.8333 26.5,42.5C 26.5,42.8333 26.5,43.1667 26.5,43.5C 24.5,43.5 23.5,42.5 23.5,40.5 Z"/></g>
<g><path style="opacity:0.989" fill="#ffbf0c" d="M 44.5,19.5 C 44.5,18.8333 44.5,18.1667 44.5,17.5C 45.0431,17.44 45.3764,17.1067 45.5,16.5C 44.3333,16.1667 43.1667,15.8333 42,15.5C 40.3189,15.6083 39.1522,16.2749 38.5,17.5C 37.6618,17.8417 37.3284,18.5084 37.5,19.5C 36.596,20.209 36.2627,21.209 36.5,22.5C 35.8333,23.1667 35.1667,23.8333 34.5,24.5C 31.1667,25.8333 27.8333,25.8333 24.5,24.5C 24.1667,24.5 23.8333,24.5 23.5,24.5C 23.5979,22.4471 22.9313,20.7804 21.5,19.5C 21.7373,18.209 21.404,17.209 20.5,16.5C 18.3066,15.2031 15.9732,15.2031 13.5,16.5C 13.6236,17.1067 13.9569,17.44 14.5,17.5C 14.5,18.1667 14.5,18.8333 14.5,19.5C 11.3271,18.8303 8.32706,17.6636 5.5,16C 4.54943,15.2825 4.38277,14.4491 5,13.5C 12.6919,9.38181 20.6919,6.04848 29,3.5C 37.908,6.20357 46.408,9.87024 54.5,14.5C 51.6018,16.9182 48.2685,18.5849 44.5,19.5 Z M 20.5,16.5 C 18.2646,16.2053 16.2646,16.5386 14.5,17.5C 13.9569,17.44 13.6236,17.1067 13.5,16.5C 15.9732,15.2031 18.3066,15.2031 20.5,16.5 Z M 44.5,17.5 C 42.8333,16.1667 41.1667,16.1667 39.5,17.5C 39.1667,17.5 38.8333,17.5 38.5,17.5C 39.1522,16.2749 40.3189,15.6083 42,15.5C 43.1667,15.8333 44.3333,16.1667 45.5,16.5C 45.3764,17.1067 45.0431,17.44 44.5,17.5 Z"/></g>
<g><path style="opacity:0.012" fill="#fefffe" d="M 59.5,8.5 C 59.5,9.16667 59.5,9.83333 59.5,10.5C 59.1667,10.5 58.8333,10.5 58.5,10.5C 58.3284,9.50838 58.6618,8.84171 59.5,8.5 Z"/></g>
<g><path style="opacity:0.02" fill="#ffc824" d="M 14.5,17.5 C 16.2646,16.5386 18.2646,16.2053 20.5,16.5C 20.5,17.5 20.5,18.5 20.5,19.5C 19.5326,18.1938 18.1993,17.5271 16.5,17.5C 16.5,18.5 16.5,19.5 16.5,20.5C 16.1667,20.5 15.8333,20.5 15.5,20.5C 15.7373,19.209 15.404,18.209 14.5,17.5 Z"/></g>
<g><path style="opacity:0.031" fill="#ffaf2b" d="M 39.5,17.5 C 41.1667,16.1667 42.8333,16.1667 44.5,17.5C 43.596,18.209 43.2627,19.209 43.5,20.5C 43.1667,20.5 42.8333,20.5 42.5,20.5C 42.5,19.5 42.5,18.5 42.5,17.5C 41.5,17.5 40.5,17.5 39.5,17.5 Z"/></g>
<g><path style="opacity:0.02" fill="#ffbbfd" d="M 38.5,17.5 C 38.8333,17.5 39.1667,17.5 39.5,17.5C 39.5979,19.5529 38.9313,21.2196 37.5,22.5C 37.5,21.5 37.5,20.5 37.5,19.5C 38.3382,19.1583 38.6716,18.4916 38.5,17.5 Z"/></g>
<g><path style="opacity:0.988" fill="#e90016" d="M 3.5,19.5 C 2.53281,27.4144 2.19947,35.4144 2.5,43.5C 1.83443,39.6812 1.5011,35.6812 1.5,31.5C 1.5093,27.107 2.17596,23.107 3.5,19.5 Z"/></g>
<g><path style="opacity:0.999" fill="#2db6f8" d="M 58.5,44.5 C 49.6251,48.2353 40.6251,51.5686 31.5,54.5C 31.5,51.1667 31.5,47.8333 31.5,44.5C 32.7095,44.0679 33.7095,43.4013 34.5,42.5C 37.3442,36.6555 40.0108,30.6555 42.5,24.5C 47.2246,22.7007 51.8912,20.7007 56.5,18.5C 57.086,18.7093 57.586,19.0426 58,19.5C 58.4997,27.8267 58.6664,36.16 58.5,44.5 Z"/></g>
<g><path style="opacity:1" fill="#eb3047" d="M 3.5,19.5 C 4.70951,19.9321 5.70951,20.5987 6.5,21.5C 5.76109,21.369 5.09442,21.5357 4.5,22C 8.74001,26.7454 13.4067,30.912 18.5,34.5C 13.2018,37.4845 7.86846,40.4845 2.5,43.5C 2.19947,35.4144 2.53281,27.4144 3.5,19.5 Z"/></g>
<g><path style="opacity:0.904" fill="#b42635" d="M 6.5,21.5 C 9.83333,22.5 13.1667,23.5 16.5,24.5C 18.0277,27.7487 19.3611,31.082 20.5,34.5C 19.8333,34.5 19.1667,34.5 18.5,34.5C 13.4067,30.912 8.74001,26.7454 4.5,22C 5.09442,21.5357 5.76109,21.369 6.5,21.5 Z"/></g>
<g><path style="opacity:0.827" fill="#fcf8f5" d="M 24.5,24.5 C 27.8333,25.8333 31.1667,25.8333 34.5,24.5C 34.5,25.5 34.5,26.5 34.5,27.5C 33.6618,27.8417 33.3284,28.5084 33.5,29.5C 31.8235,30.1834 31.1568,31.5168 31.5,33.5C 31.3155,36.1731 30.1489,36.8398 28,35.5C 26.3262,31.9793 25.1596,28.3127 24.5,24.5 Z"/></g>
<g><path style="opacity:0.651" fill="#2495f1" d="M 33.5,29.5 C 33.0113,30.9952 32.3446,32.3285 31.5,33.5C 31.1568,31.5168 31.8235,30.1834 33.5,29.5 Z"/></g>
<g><path style="opacity:0.012" fill="#1fafff" d="M 34.5,39.5 C 34.5,40.5 34.5,41.5 34.5,42.5C 33.8333,42.5 33.1667,42.5 32.5,42.5C 32.9321,41.2905 33.5987,40.2905 34.5,39.5 Z"/></g>
<g><path style="opacity:0.012" fill="#fefffe" d="M 58.5,48.5 C 58.8333,48.5 59.1667,48.5 59.5,48.5C 59.5,49.1667 59.5,49.8333 59.5,50.5C 59.1667,50.5 58.8333,50.5 58.5,50.5C 58.5,49.8333 58.5,49.1667 58.5,48.5 Z"/></g>
<g><path style="opacity:0.01" fill="#fefffe" d="M 57.5,50.5 C 57.8333,50.5 58.1667,50.5 58.5,50.5C 58.6716,51.4916 58.3382,52.1583 57.5,52.5C 57.5,51.8333 57.5,51.1667 57.5,50.5 Z"/></g>
<g><path style="opacity:0.016" fill="#fefffe" d="M 56.5,52.5 C 56.8333,52.5 57.1667,52.5 57.5,52.5C 57.3147,53.1701 56.9813,53.1701 56.5,52.5 Z"/></g>
<g><path style="opacity:0.02" fill="#fefffe" d="M 55.5,53.5 C 55.8333,53.5 56.1667,53.5 56.5,53.5C 56.3147,54.1701 55.9813,54.1701 55.5,53.5 Z"/></g>
<g><path style="opacity:0.02" fill="#fefffe" d="M 54.5,54.5 C 54.8333,54.5 55.1667,54.5 55.5,54.5C 55.3147,55.1701 54.9813,55.1701 54.5,54.5 Z"/></g>
<g><path style="opacity:0.016" fill="#fefffe" d="M 53.5,55.5 C 53.8333,55.5 54.1667,55.5 54.5,55.5C 54.3147,56.1701 53.9813,56.1701 53.5,55.5 Z"/></g>
<g><path style="opacity:0.008" fill="#fefffe" d="M 51.5,57.5 C 51.5,57.1667 51.5,56.8333 51.5,56.5C 52.1667,56.5 52.8333,56.5 53.5,56.5C 53.1583,57.3382 52.4916,57.6716 51.5,57.5 Z"/></g>
<g><path style="opacity:0.016" fill="#fefffe" d="M 51.5,57.5 C 50.8333,58.1667 50.8333,58.1667 51.5,57.5 Z"/></g>
<g><path style="opacity:0.012" fill="#fefffe" d="M 9.5,59.5 C 10.5676,58.5655 11.901,58.2322 13.5,58.5C 13.5,58.8333 13.5,59.1667 13.5,59.5C 12.1667,59.5 10.8333,59.5 9.5,59.5 Z"/></g>
<g><path style="opacity:0.013" fill="#fefffe" d="M 46.5,59.5 C 47.5,58.1667 48.5,58.1667 49.5,59.5C 48.5,59.5 47.5,59.5 46.5,59.5 Z"/></g>
</svg>
